<?xml version="1.0" encoding="UTF-8"?>
<!-- Generator: Adobe Illustrator 15.0.0, SVG Export Plug-In . SVG Version: 6.00 Build 0)  -->
<!DOCTYPE svg PUBLIC "-//W3C//DTD SVG 1.1//EN" "http://www.w3.org/Graphics/SVG/1.1/DTD/svg11.dtd">
<svg version="1.1" id="Layer_1" xmlns="http://www.w3.org/2000/svg" xmlns:xlink="http://www.w3.org/1999/xlink" x="0px" y="0px" width="377px" height="104px" viewBox="0 0 377 104" enable-background="new 0 0 377 104" xml:space="preserve">
<g>
	<g id="Layer_1_1_">
		<path fill-rule="evenodd" clip-rule="evenodd" fill="#000000" d="M370.403,27.35h6.6l-10.2,29.4    c-0.2,0.366-0.333,0.783-0.399,1.25c-0.101,0.467-0.351,0.95-0.75,1.45c-0.4,0.5-0.851,0.967-1.351,1.399    c-0.5,0.4-1.267,0.733-2.3,1c-1,0.301-2.167,0.45-3.5,0.45c-0.667,0-1.434-0.066-2.3-0.2v-4.85c0.666,0.2,1.233,0.3,1.7,0.3    c1.133,0,2.083-0.399,2.85-1.2c0.767-0.8,1.15-1.783,1.15-2.949v-0.2l-9.25-25.85h7.1l5.5,18.1L370.403,27.35z M337.603,32.15    v-4.3h3.15V21.2h6.45v6.65h3.6v4.3h-3.6v13.5c0,1.133,0.133,1.867,0.399,2.2c0.301,0.367,0.884,0.55,1.75,0.55    c0.334,0,0.817-0.05,1.45-0.15v4.5c-1.033,0.333-2.267,0.5-3.7,0.5c-4.233,0-6.35-1.95-6.35-5.85V32.15H337.603z M336.103,33.55    c-0.767-0.133-1.449-0.2-2.05-0.2c-3.767,0-5.649,1.883-5.649,5.65v13.2h-6.45V27.35h6.45v4.9c0.666-1.7,1.616-3.017,2.85-3.95    c1.233-0.9,2.583-1.35,4.05-1.35c0.267,0,0.533,0.017,0.8,0.05V33.55z M291.953,21.35c1.833,1.767,2.75,4.333,2.75,7.7    c0,3.4-0.917,6.117-2.75,8.15c-1.834,2.033-4.283,3.05-7.351,3.05h-8.6V52.2h-6.9V18.65h14.801    C287.403,18.65,290.086,19.55,291.953,21.35z M295.803,35.55c0.4-5.733,3.934-8.6,10.601-8.6c6.8,0,10.199,2.55,10.199,7.65v13.8    c0,1.133,0.483,2.133,1.45,3v0.8h-7c-0.5-0.6-0.75-1.434-0.75-2.5c-2.233,2.367-4.733,3.55-7.5,3.55c-2.267,0-4.1-0.683-5.5-2.05    c-1.366-1.367-2.05-3.167-2.05-5.4c0-4.367,2.434-6.966,7.3-7.8l2.601-0.45c0.5-0.033,1.05-0.117,1.649-0.25    c0.634-0.133,1.2-0.267,1.7-0.4c0.5-0.167,0.934-0.45,1.3-0.85c0.334-0.367,0.5-0.833,0.5-1.4c0-1.667-1.25-2.5-3.75-2.5    c-1.6,0-2.717,0.25-3.35,0.75c-0.634,0.467-1.033,1.35-1.2,2.65H295.803z M286.503,25.65c-0.866-0.833-2.217-1.25-4.05-1.25h-6.45    v10.1h6.45c3.566,0,5.35-1.683,5.35-5.05C287.803,27.75,287.369,26.483,286.503,25.65z M301.703,45.1c0,0.9,0.3,1.617,0.899,2.15    c0.634,0.533,1.5,0.8,2.601,0.8c1.6,0,2.85-0.5,3.75-1.5c0.899-1,1.35-2.433,1.35-4.3V40.5c-0.6,0.267-1.517,0.517-2.75,0.75    l-2.2,0.4c-1.333,0.3-2.283,0.7-2.85,1.2C301.97,43.383,301.703,44.133,301.703,45.1z M248.753,31.1c0.8,1,1.434,2.316,1.9,3.95    c0.5,1.667,0.75,3.55,0.75,5.65c0,0.367-0.017,0.733-0.051,1.1h-16.649c0.033,0.967,0.116,1.784,0.25,2.45    c0.133,0.7,0.383,1.383,0.75,2.05c0.333,0.667,0.85,1.167,1.55,1.5c0.7,0.367,1.566,0.55,2.6,0.55c2.467,0,4.101-1.05,4.9-3.15    h6.4c-0.733,2.466-2.134,4.433-4.2,5.9c-2.101,1.433-4.533,2.15-7.3,2.15c-3.534,0-6.317-1.133-8.351-3.4    c-2.033-2.3-3.05-5.434-3.05-9.4c0-4.2,1.033-7.5,3.1-9.9c2.067-2.4,4.867-3.6,8.4-3.6c1.1,0,2.15,0.117,3.15,0.35    c1,0.233,2.033,0.684,3.1,1.35C247.069,29.283,247.986,30.1,248.753,31.1z M243.203,33.35c-0.867-1-2.05-1.5-3.55-1.5    c-2.801,0-4.417,1.9-4.851,5.7h9.9C244.536,35.717,244.036,34.317,243.203,33.35z M222.653,21.2v6.65h3.6v4.3h-3.6v13.5    c0,1.133,0.133,1.867,0.399,2.2c0.3,0.367,0.884,0.55,1.75,0.55c0.334,0,0.816-0.05,1.45-0.15v4.5c-1.033,0.333-2.267,0.5-3.7,0.5    c-4.233,0-6.35-1.95-6.35-5.85V32.15h-3.15v-4.3h3.15V21.2H222.653z M203.603,34.65c0-1.667-1.25-2.5-3.75-2.5    c-1.6,0-2.716,0.25-3.35,0.75c-0.634,0.467-1.033,1.35-1.2,2.65h-6.199c0.4-5.733,3.933-8.6,10.6-8.6c6.8,0,10.2,2.55,10.2,7.65    v13.8c0,1.133,0.483,2.133,1.449,3v0.8h-7c-0.5-0.6-0.75-1.434-0.75-2.5c-2.233,2.367-4.733,3.55-7.5,3.55    c-2.267,0-4.1-0.683-5.5-2.05c-1.366-1.367-2.049-3.167-2.049-5.4c0-4.367,2.433-6.966,7.299-7.8l2.601-0.45    c0.5-0.033,1.05-0.117,1.649-0.25c0.634-0.133,1.2-0.267,1.7-0.4c0.5-0.167,0.934-0.45,1.3-0.85    C203.437,35.683,203.603,35.217,203.603,34.65z M203.603,40.5c-0.6,0.267-1.517,0.517-2.75,0.75l-2.199,0.4    c-1.334,0.3-2.284,0.7-2.851,1.2c-0.533,0.533-0.8,1.283-0.8,2.25c0,0.9,0.3,1.617,0.9,2.15c0.633,0.533,1.5,0.8,2.6,0.8    c1.6,0,2.85-0.5,3.75-1.5s1.35-2.433,1.35-4.3V40.5z M167.053,24.4h-6.4v-5.75h6.4V24.4z M179.653,27.35v4.9    c0.667-1.7,1.617-3.017,2.85-3.95c0.165-0.12,0.331-0.228,0.5-0.325c1.096-0.684,2.279-1.025,3.55-1.025    c0.267,0,0.534,0.017,0.8,0.05v6.55c-0.767-0.133-1.45-0.2-2.05-0.2c-0.866,0-1.633,0.1-2.3,0.3c-2.233,0.667-3.35,2.45-3.35,5.35    v13.2h-6.45V27.35H179.653z M167.053,52.2h-6.4V27.35h6.4V52.2z M153.253,21.35c1.833,1.767,2.75,4.333,2.75,7.7    c0,3.4-0.917,6.117-2.75,8.15c-1.833,2.033-4.283,3.05-7.35,3.05h-8.6V52.2h-6.9V18.65h14.8    C148.704,18.65,151.387,19.55,153.253,21.35z M147.803,25.65c-0.867-0.833-2.216-1.25-4.05-1.25h-6.45v10.1h6.45    c3.567,0,5.35-1.683,5.35-5.05C149.104,27.75,148.67,26.483,147.803,25.65z"/>
		<path fill-rule="evenodd" clip-rule="evenodd" fill="#CA0000" d="M265.753,71.65c0.134-3.867,2.517-5.801,7.15-5.801    c2.199,0,3.866,0.417,5,1.25c1.133,0.834,1.699,2.051,1.699,3.65V81.2c0,0.934,0.517,1.399,1.551,1.399    c0.199,0,0.399-0.017,0.6-0.05v2.15c-0.8,0.2-1.45,0.3-1.95,0.3c-0.899,0-1.583-0.217-2.05-0.65c-0.467-0.433-0.75-1.1-0.85-2    c-1.9,1.767-3.934,2.65-6.101,2.65c-1.767,0-3.184-0.483-4.25-1.45c-1.033-0.967-1.55-2.25-1.55-3.85c0-0.5,0.05-0.967,0.15-1.4    c0.1-0.434,0.216-0.816,0.35-1.149c0.1-0.334,0.316-0.634,0.65-0.9c0.3-0.3,0.566-0.533,0.8-0.7c0.2-0.2,0.55-0.383,1.05-0.55    c0.533-0.167,0.934-0.283,1.2-0.35c0.267-0.101,0.733-0.2,1.399-0.301c0.7-0.133,1.2-0.216,1.5-0.25    c0.334-0.033,0.917-0.116,1.75-0.25c1.101-0.133,1.867-0.333,2.301-0.6c0.433-0.3,0.649-0.75,0.649-1.35v-0.75    c0-0.867-0.35-1.517-1.05-1.95c-0.7-0.467-1.684-0.7-2.95-0.7c-1.333,0-2.333,0.25-3,0.75c-0.666,0.5-1.066,1.3-1.2,2.4H265.753z     M253.653,68.55c-1.534,0-2.784,0.634-3.75,1.9c-0.934,1.267-1.4,2.934-1.4,5s0.467,3.733,1.4,5c0.966,1.233,2.233,1.85,3.8,1.85    c1.5,0,2.7-0.616,3.6-1.85c0.9-1.233,1.351-2.884,1.351-4.95c0-2.134-0.45-3.833-1.351-5.1    C256.403,69.167,255.187,68.55,253.653,68.55z M258.653,59.4h2.85v24.8h-2.55V81.85c-0.767,1.101-1.601,1.9-2.5,2.4    c-0.867,0.5-1.917,0.75-3.15,0.75c-2.399,0-4.3-0.884-5.7-2.65c-1.366-1.699-2.05-4.066-2.05-7.1c0-2.833,0.684-5.1,2.05-6.8    c1.4-1.733,3.267-2.601,5.601-2.601c2.434,0,4.25,0.934,5.45,2.801V59.4z M243.953,84.7c-0.8,0.2-1.45,0.3-1.95,0.3    c-0.9,0-1.583-0.217-2.05-0.65c-0.467-0.433-0.75-1.1-0.851-2c-1.899,1.767-3.933,2.65-6.1,2.65c-1.767,0-3.184-0.483-4.25-1.45    c-1.033-0.967-1.55-2.25-1.55-3.85c0-0.5,0.05-0.967,0.149-1.4c0.101-0.434,0.217-0.816,0.351-1.149    c0.1-0.334,0.316-0.634,0.649-0.9c0.301-0.3,0.567-0.533,0.801-0.7c0.199-0.2,0.55-0.383,1.05-0.55    c0.533-0.167,0.934-0.283,1.2-0.35c0.267-0.101,0.733-0.2,1.399-0.301c0.7-0.133,1.2-0.216,1.5-0.25    c0.334-0.033,0.917-0.116,1.75-0.25c1.101-0.133,1.867-0.333,2.3-0.6c0.434-0.3,0.65-0.75,0.65-1.35v-0.75    c0-0.867-0.35-1.517-1.05-1.95c-0.7-0.467-1.684-0.7-2.95-0.7c-1.333,0-2.333,0.25-3,0.75s-1.066,1.3-1.2,2.4h-2.85    c0.133-3.867,2.517-5.801,7.149-5.801c2.2,0,3.867,0.417,5,1.25c1.134,0.834,1.7,2.051,1.7,3.65V81.2    c0,0.934,0.517,1.399,1.55,1.399c0.2,0,0.4-0.017,0.601-0.05V84.7z M276.803,75.4c-0.566,0.267-1.434,0.5-2.6,0.699    c-1.134,0.167-2.117,0.317-2.95,0.45c-0.866,0.134-1.634,0.467-2.3,1c-0.667,0.5-1,1.2-1,2.101c0,0.899,0.3,1.6,0.899,2.1    c0.634,0.5,1.5,0.75,2.601,0.75c1.566,0,2.85-0.417,3.85-1.25s1.5-1.717,1.5-2.65V75.4z M183.003,65.025    c-0.368-0.778-0.851-1.42-1.45-1.926c-1.066-0.866-2.583-1.3-4.55-1.3c-2.4,0-4.3,0.917-5.7,2.75c-1.4,1.834-2.1,4.334-2.1,7.5    c0,3.134,0.716,5.601,2.15,7.4c1.467,1.833,3.433,2.75,5.9,2.75c2.033,0,3.6-0.566,4.7-1.7c0.396-0.433,0.746-0.95,1.05-1.55    c0.515-1.024,0.898-2.291,1.15-3.8h3.3c-0.474,4.054-1.957,6.854-4.45,8.399c-1.545,0.967-3.479,1.45-5.8,1.45    c-1.667,0-3.184-0.3-4.55-0.9c-1.333-0.566-2.417-1.283-3.25-2.149c-0.8-0.9-1.467-1.95-2-3.15c-0.533-1.166-0.883-2.3-1.05-3.399    c-0.2-1.101-0.3-2.2-0.3-3.301c0-1.133,0.1-2.25,0.3-3.35c0.167-1.134,0.517-2.3,1.05-3.5c0.567-1.2,1.25-2.25,2.05-3.15    c0.8-0.866,1.883-1.6,3.25-2.199c1.4-0.601,2.95-0.9,4.65-0.9c2.278,0,4.161,0.483,5.65,1.45c2.041,1.311,3.341,3.527,3.9,6.649    h-3.25C183.507,66.325,183.291,65.634,183.003,65.025z M193.303,71.65h-2.85c0.133-3.867,2.517-5.801,7.149-5.801    c2.2,0,3.867,0.417,5,1.25c1.134,0.834,1.7,2.051,1.7,3.65V81.2c0,0.934,0.517,1.399,1.55,1.399c0.2,0,0.4-0.017,0.601-0.05v2.15    c-0.8,0.2-1.45,0.3-1.95,0.3c-0.9,0-1.583-0.217-2.05-0.65c-0.467-0.433-0.75-1.1-0.851-2c-1.899,1.767-3.933,2.65-6.1,2.65    c-1.767,0-3.184-0.483-4.25-1.45c-1.033-0.967-1.55-2.25-1.55-3.85c0-0.5,0.051-0.967,0.15-1.4s0.216-0.816,0.35-1.149    c0.1-0.334,0.316-0.634,0.649-0.9c0.301-0.3,0.567-0.533,0.801-0.7c0.199-0.2,0.55-0.383,1.05-0.55    c0.533-0.167,0.934-0.283,1.2-0.35c0.267-0.101,0.733-0.2,1.399-0.301c0.7-0.133,1.2-0.216,1.5-0.25    c0.334-0.033,0.917-0.116,1.75-0.25c1.101-0.133,1.867-0.333,2.3-0.6c0.434-0.3,0.65-0.75,0.65-1.35v-0.75    c0-0.867-0.35-1.517-1.05-1.95c-0.7-0.467-1.684-0.7-2.95-0.7c-1.333,0-2.333,0.25-3,0.75S193.437,70.55,193.303,71.65z     M201.503,75.4c-0.566,0.267-1.434,0.5-2.6,0.699c-1.134,0.167-2.117,0.317-2.95,0.45c-0.867,0.134-1.634,0.467-2.3,1    c-0.667,0.5-1,1.2-1,2.101c0,0.899,0.3,1.6,0.899,2.1c0.634,0.5,1.5,0.75,2.601,0.75c1.566,0,2.85-0.417,3.85-1.25    s1.5-1.717,1.5-2.65V75.4z M211.853,66.4v2.949c0.801-1.233,1.65-2.116,2.551-2.649c0.933-0.566,2.05-0.851,3.35-0.851    c1.733,0,3.1,0.45,4.1,1.351c1.034,0.899,1.551,2.083,1.551,3.55V84.2h-2.801V71.85c0-1.066-0.333-1.916-1-2.55    c-0.666-0.633-1.566-0.95-2.699-0.95c-1.434,0-2.601,0.551-3.5,1.65c-0.867,1.1-1.301,2.55-1.301,4.35V84.2h-2.899V66.4H211.853z     M233.453,76.55c-0.867,0.134-1.634,0.467-2.3,1c-0.667,0.5-1,1.2-1,2.101c0,0.899,0.3,1.6,0.899,2.1    c0.634,0.5,1.5,0.75,2.601,0.75c1.566,0,2.85-0.417,3.85-1.25s1.5-1.717,1.5-2.65V75.4c-0.566,0.267-1.434,0.5-2.6,0.699    C235.27,76.267,234.286,76.417,233.453,76.55z M153.303,61.8c-1.333,0-2,0.601-2,1.8V66.4h2.95v2.3h-2.95v15.5h-2.8V68.7h-2.4    v-2.3h2.4V63.35c0-1.267,0.367-2.25,1.1-2.949c0.733-0.733,1.75-1.101,3.05-1.101c0.533,0,1.067,0.066,1.6,0.2v2.3    C153.854,61.8,153.537,61.8,153.303,61.8z M132.454,70.35c-0.9,1.233-1.35,2.934-1.35,5.101c0,2.133,0.45,3.816,1.35,5.05    c0.9,1.233,2.15,1.85,3.75,1.85c1.533,0,2.767-0.616,3.7-1.85c0.934-1.233,1.4-2.884,1.4-4.95c0-2.2-0.45-3.934-1.35-5.2    c-0.9-1.233-2.15-1.85-3.75-1.85C134.604,68.5,133.354,69.116,132.454,70.35z M136.153,65.85c2.567,0,4.55,0.851,5.95,2.551    c1.433,1.699,2.15,4.083,2.15,7.149c0,2.934-0.733,5.233-2.2,6.9c-1.433,1.7-3.383,2.55-5.85,2.55c-2.534,0-4.517-0.85-5.95-2.55    c-1.4-1.7-2.1-4.033-2.1-7c0-3,0.7-5.351,2.1-7.05C131.687,66.7,133.653,65.85,136.153,65.85z"/>
		<g>
			<g>
				<path fill-rule="evenodd" clip-rule="evenodd" fill="#000000" d="M84.604,84.15c8.733-8.733,13.267-19.667,13.6-32.8      c-0.333-13.133-4.867-24.067-13.6-32.8C75.87,9.85,64.937,5.333,51.803,5c-13.133,0.333-24.066,4.85-32.8,13.55      c-8.733,8.733-13.267,19.667-13.6,32.8c0.333,13.133,4.867,24.067,13.6,32.8s19.667,13.267,32.8,13.6      C64.937,97.417,75.87,92.884,84.604,84.15z M104.354,52.4c-0.1,9.567-2.434,18.183-7,25.85      c-4.567,7.667-10.733,13.767-18.5,18.3c-7.733,4.5-16.383,6.8-25.95,6.9c-9.633-0.101-18.383-2.417-26.25-6.95      c-7.867-4.566-14.2-10.7-19-18.4C2.887,70.4,0.337,61.75,0.003,52.15c-0.1-9.733,2.117-18.517,6.65-26.35      c4.533-7.867,10.733-14.117,18.6-18.75C33.087,2.417,41.92,0.067,51.753,0c9.8,0.167,18.65,2.6,26.55,7.3      c7.934,4.7,14.233,10.967,18.9,18.8C101.87,33.967,104.253,42.733,104.354,52.4z"/>
			</g>
			<g>
				<rect x="32.003" y="17.35" fill-rule="evenodd" clip-rule="evenodd" fill="#000000" width="3.8" height="54.9"/>
			</g>
			<g>
				<path fill-rule="evenodd" clip-rule="evenodd" fill="#CA0000" d="M41.104,23.6c0.066,0,0.867,0.25,2.4,0.75      c1.5,0.5,3.25,1.3,5.25,2.4c3.9,2.067,7.067,4.833,9.5,8.3c1.9,2.967,2.7,5.983,2.4,9.05c-0.333,3.1-1.283,5.8-2.85,8.1      c-2.867,4.467-6.383,8.267-10.55,11.399c-1.933,1.334-4,2.784-6.2,4.351c-2.2,1.566-3.966,3.283-5.3,5.149      c-1.667,2.601-2.467,5.4-2.4,8.4c0.033,3,0.267,6.283,0.7,9.85c-0.367,0.167-0.55,0.167-0.55,0      c-1.5-5.733-2.267-10.533-2.3-14.399c-0.034-3.9,1.233-7.5,3.8-10.8c3-3.467,6.083-6.217,9.25-8.25      c3.133-2.034,5.583-4.767,7.35-8.2c0.633-1.367,0.967-3.45,1-6.25c0-2.8-0.767-5.8-2.3-9c-1.8-3.567-4.15-6.2-7.05-7.9      c-2.9-1.733-6.85-2.833-11.85-3.3c-1.1,0-2.183,0.017-3.25,0.05c0-0.3,0-0.466,0-0.5l4.7-0.45l3.6,0.25L41.104,23.6z       M81.604,29.5c1.867,2.4,3.183,5,3.95,7.8c0.8,2.767,1.167,5.167,1.1,7.2c-0.167,4.967-1.617,8.533-4.35,10.7      c-2.733,2.2-6.417,3.983-11.05,5.35v-0.3c4.167-1.767,7.133-4.017,8.9-6.75c1.767-2.767,2.617-5.683,2.55-8.75      c0.033-2.567-0.233-4.867-0.8-6.9c-0.6-2.033-1.6-4.267-3-6.7c-2.767-4.667-6.7-7.883-11.8-9.65c-5.833-1.9-12.8-2.65-20.9-2.25      l0.1-0.3c3.867-0.133,7.517-0.167,10.95-0.1c3.467,0.033,6.617,0.467,9.45,1.3c3.667,1.067,6.566,2.25,8.7,3.55      C77.503,25,79.57,26.933,81.604,29.5z"/>
			</g>
			<g>
				<path fill-rule="evenodd" clip-rule="evenodd" fill="#CA0000" d="M71.753,34.3c0.6-0.167,1.2-0.316,1.8-0.45      c0.5,1.3,0.833,2.617,1,3.95c0.733-0.7,1.45-1.35,2.15-1.95c0.233,0.4,0.433,0.816,0.6,1.25c0.733-0.033,1.45-0.067,2.15-0.1      c-0.367,0.967-0.8,1.95-1.3,2.95c0.4,0.2,0.783,0.417,1.15,0.65c-0.767,0.633-1.566,1.316-2.4,2.05      c0.467,0.767,0.85,1.533,1.15,2.3c-1.5,0.033-3.25,0.216-5.25,0.55c-0.333,1.533-0.9,3.117-1.7,4.75      c-0.4,0.033-0.817,0.083-1.25,0.15c0.833-1.667,1.433-3.3,1.8-4.9c-2.033,0-4.383,0.283-7.05,0.85c0.933-1,1.8-1.967,2.6-2.9      c-1.1-0.567-2.317-1.1-3.65-1.6c0.6-0.367,1.184-0.7,1.75-1c-0.966-1-2-2.033-3.1-3.1c1.033-0.067,2.033-0.117,3-0.15      c-0.067-0.5-0.15-0.983-0.25-1.45c1.466,0.6,2.85,1.217,4.15,1.85c-0.667-1.367-1.567-2.75-2.7-4.15      c0.833,0.133,1.65,0.283,2.45,0.45c-0.267-1.267-0.717-2.466-1.35-3.6C69.137,31.867,70.553,33.067,71.753,34.3z"/>
			</g>
		</g>
	</g>
</g>
</svg>