<?xml version="1.0" encoding="UTF-8"?>
<!-- Generator: Adobe Illustrator 15.0.2, SVG Export Plug-In . SVG Version: 6.00 Build 0)  -->
<!DOCTYPE svg PUBLIC "-//W3C//DTD SVG 1.1//EN" "http://www.w3.org/Graphics/SVG/1.1/DTD/svg11.dtd">
<svg version="1.1" id="Layer_1" xmlns="http://www.w3.org/2000/svg" xmlns:xlink="http://www.w3.org/1999/xlink" x="0px" y="0px" width="405.69px" height="138.146px" viewBox="0 0 405.69 138.146" enable-background="new 0 0 405.69 138.146" xml:space="preserve">
<g>
	<g>
		<path d="M68.948,16.246c-29.07,0-52.646,23.655-52.646,52.834c0,29.178,23.576,52.823,52.646,52.823    c29.076,0,52.65-23.646,52.65-52.823C121.599,39.9,98.024,16.246,68.948,16.246z M68.948,117.038    c-26.488,0-47.971-21.468-47.971-47.958c0-26.494,21.482-47.969,47.971-47.969c26.496,0,47.969,21.475,47.969,47.969    C116.917,95.57,95.444,117.038,68.948,117.038z"/>
		<path d="M53.003,37.566v-7.398h-4.625v8.553c-3.154,0.961-4.963,1.961-4.674,2.6c1.039-0.301,2.689-0.439,4.674-0.311v44.459    c-4.814,9.254,2.064,23.461,2.064,23.461s-5.107-15.152,6.262-22.32c10.453-6.602,46.516-3.504,46.385-23.848    C102.923,33.939,69.673,34.109,53.003,37.566z M67.884,65.529c-1.625,7.662-10.004,11.662-14.881,14.982V41.723    C61.337,43.721,71.13,50.125,67.884,65.529z"/>
		<path d="M153.657,55.234c-2.49-1.754-6.047-2.641-10.676-2.641c-1.33,0-2.799,0.061-4.398,0.166    c-1.605,0.113-3.051,0.33-4.355,0.645v32.488h4.615V73.668h3.662c2.314,0,4.387-0.188,6.232-0.568    c1.84-0.383,3.402-0.99,4.682-1.836c1.287-0.84,2.271-1.932,2.949-3.277c0.682-1.352,1.023-2.973,1.023-4.879    C157.392,59.617,156.146,56.994,153.657,55.234z M151.827,66.344c-0.477,0.855-1.146,1.531-2.02,2.02    c-0.873,0.496-1.945,0.84-3.211,1.047c-1.27,0.211-2.697,0.311-4.281,0.311h-3.473V56.783c1.045-0.098,2.551-0.143,4.52-0.143    c1.236,0,2.412,0.092,3.516,0.283c1.111,0.193,2.088,0.531,2.93,1.025c0.84,0.49,1.502,1.148,1.998,1.975    c0.486,0.824,0.738,1.869,0.738,3.139C152.544,64.395,152.302,65.484,151.827,66.344z"/>
		<rect x="165.274" y="53.402" width="4.551" height="32.49"/>
		<path d="M200.378,78.02c-0.828-1.248-1.627-2.393-2.406-3.42c-0.773-1.031-1.418-1.865-1.924-2.502    c2.252-0.756,3.955-1.912,5.111-3.469c1.158-1.553,1.738-3.422,1.738-5.613c0-3.453-1.211-6.053-3.639-7.795    c-2.426-1.744-5.951-2.621-10.578-2.621c-1.332,0-2.801,0.061-4.398,0.166c-1.607,0.113-3.057,0.33-4.357,0.645v32.482h4.615    V73.006h4.141c0.439,0,0.875,0,1.307,0c0.426,0,0.846-0.018,1.256-0.049c0.604,0.732,1.277,1.586,2.023,2.566    c0.744,0.988,1.498,2.041,2.258,3.164c0.762,1.123,1.512,2.305,2.26,3.545c0.746,1.23,1.43,2.459,2.066,3.66h5.043    c-0.566-1.27-1.262-2.584-2.072-3.949C202.019,80.582,201.2,79.271,200.378,78.02z M195.31,68.061    c-0.869,0.445-1.941,0.744-3.211,0.9c-1.266,0.166-2.693,0.24-4.275,0.24h-3.283V56.789c1.049-0.098,2.551-0.143,4.52-0.143    c1.236,0,2.4,0.092,3.49,0.283c1.098,0.193,2.049,0.525,2.857,1.002c0.809,0.475,1.445,1.123,1.926,1.947    c0.475,0.828,0.711,1.855,0.711,3.09c0,1.33-0.236,2.404-0.711,3.211C196.853,66.99,196.183,67.613,195.31,68.061z"/>
		<path d="M234.571,68.027c-1.045-2.623-2.09-5.131-3.119-7.521c-1.029-2.393-2.107-4.758-3.234-7.104h-4.172    c-1.125,2.346-2.203,4.711-3.234,7.104c-1.031,2.391-2.072,4.898-3.117,7.521c-1.051,2.627-2.117,5.404-3.213,8.326    c-1.098,2.92-2.264,6.102-3.52,9.539h4.736l2.959-8.299h14.721c0.496,1.406,0.984,2.789,1.451,4.152    c0.471,1.357,0.969,2.74,1.5,4.146h4.973c-1.252-3.438-2.424-6.619-3.518-9.539C236.685,73.432,235.618,70.654,234.571,68.027z     M219.966,73.842c0.969-2.719,1.949-5.352,2.932-7.9c0.988-2.545,2.021-4.992,3.117-7.338c1.062,2.346,2.086,4.793,3.072,7.338    c0.982,2.549,1.977,5.182,2.977,7.9H219.966z"/>
		<polygon points="264.255,53.402 239.267,53.402 239.267,57.34 249.485,57.34 249.485,85.893 254.03,85.893 254.03,57.34     264.255,57.34   "/>
		<path d="M285.925,68.027c-1.045-2.623-2.086-5.131-3.119-7.521c-1.025-2.393-2.109-4.758-3.232-7.104h-4.174    c-1.123,2.346-2.203,4.711-3.232,7.104c-1.033,2.391-2.07,4.898-3.117,7.521c-1.047,2.627-2.119,5.404-3.211,8.326    c-1.096,2.92-2.268,6.102-3.52,9.539h4.732l2.961-8.299h14.719c0.502,1.406,0.984,2.789,1.455,4.152    c0.469,1.357,0.965,2.74,1.496,4.146h4.975c-1.252-3.438-2.424-6.619-3.52-9.539C288.042,73.432,286.976,70.654,285.925,68.027z     M271.323,73.842c0.965-2.719,1.945-5.352,2.93-7.9c0.984-2.545,2.023-4.992,3.117-7.338c1.064,2.346,2.088,4.793,3.07,7.338    c0.988,2.549,1.98,5.182,2.979,7.9H271.323z"/>
		<path d="M301.188,80.219c-0.852,0-1.527,0.275-2.023,0.824c-0.494,0.553-0.742,1.199-0.742,1.939c0,0.75,0.248,1.391,0.742,1.945    c0.496,0.551,1.172,0.826,2.023,0.826c0.855,0,1.527-0.275,2.025-0.826c0.494-0.555,0.74-1.195,0.74-1.945    c0-0.74-0.246-1.387-0.74-1.939C302.716,80.494,302.044,80.219,301.188,80.219z"/>
		<path d="M327.302,81.318c-1.35,0.43-3.051,0.643-5.105,0.643c-1.781,0-3.34-0.305-4.672-0.92c-1.33-0.613-2.445-1.479-3.334-2.598    c-0.893-1.119-1.561-2.465-2-4.025c-0.449-1.566-0.672-3.299-0.672-5.201c0-1.963,0.258-3.73,0.76-5.312    c0.51-1.58,1.238-2.922,2.191-4.025c0.949-1.109,2.098-1.951,3.445-2.531c1.35-0.584,2.867-0.875,4.559-0.875    c0.797,0,1.586,0.07,2.365,0.211c0.785,0.133,1.506,0.314,2.16,0.527c0.664,0.213,1.26,0.428,1.777,0.643    c0.521,0.215,0.918,0.416,1.195,0.602l1.287-3.682c-0.184-0.125-0.52-0.307-1.012-0.553c-0.494-0.246-1.125-0.49-1.908-0.736    c-0.781-0.248-1.705-0.459-2.764-0.645c-1.053-0.186-2.244-0.275-3.566-0.275c-2.082,0-4.043,0.365-5.891,1.104    c-1.836,0.734-3.445,1.809-4.826,3.223c-1.381,1.41-2.479,3.152-3.291,5.223c-0.814,2.064-1.217,4.434-1.217,7.104    s0.359,5.043,1.076,7.113c0.725,2.064,1.742,3.811,3.064,5.213c1.318,1.418,2.9,2.492,4.734,3.227    c1.844,0.734,3.887,1.104,6.121,1.104c1.293,0,2.482-0.076,3.59-0.229c1.102-0.156,2.068-0.338,2.9-0.553    c0.822-0.217,1.514-0.434,2.066-0.67c0.555-0.229,0.938-0.418,1.15-0.572l-1.15-3.678    C329.661,80.508,328.651,80.887,327.302,81.318z"/>
		<path d="M360.067,68.027c-1.045-2.623-2.086-5.131-3.117-7.521c-1.029-2.393-2.109-4.758-3.234-7.104h-4.17    c-1.125,2.346-2.207,4.711-3.236,7.104c-1.035,2.391-2.07,4.898-3.119,7.521c-1.049,2.627-2.117,5.404-3.211,8.326    c-1.094,2.92-2.27,6.102-3.518,9.539h4.736l2.955-8.299h14.719c0.502,1.406,0.986,2.789,1.455,4.152    c0.471,1.357,0.969,2.74,1.496,4.146h4.977c-1.254-3.438-2.426-6.619-3.521-9.539C362.185,73.432,361.118,70.654,360.067,68.027z     M345.468,73.842c0.963-2.719,1.943-5.352,2.928-7.9c0.982-2.545,2.023-4.992,3.119-7.338c1.061,2.346,2.084,4.793,3.07,7.338    c0.984,2.549,1.973,5.182,2.975,7.9H345.468z"/>
		<polygon points="364.458,53.402 364.458,57.34 374.675,57.34 374.675,85.893 379.222,85.893 379.222,57.34 389.444,57.34     389.444,53.402   "/>
	</g>
	<rect fill="none" width="405.69" height="138.146"/>
</g>
</svg>