<?xml version="1.0" encoding="UTF-8" standalone="no"?>
<!-- Generator: Adobe Illustrator 11.0, SVG Export Plug-In  -->
<svg xmlns:dc="http://purl.org/dc/elements/1.1/" xmlns:cc="http://creativecommons.org/ns#" xmlns:rdf="http://www.w3.org/1999/02/22-rdf-syntax-ns#" xmlns:svg="http://www.w3.org/2000/svg" xmlns="http://www.w3.org/2000/svg" xmlns:sodipodi="http://sodipodi.sourceforge.net/DTD/sodipodi-0.dtd" xmlns:inkscape="http://www.inkscape.org/namespaces/inkscape" width="1337" height="463" viewBox="-0.327 -0.089 1337 463" xml:space="preserve" id="svg2834" version="1.1" inkscape:version="0.47 r22583" sodipodi:docname="PPCh-Logo.svg" sodipodi:version="0.32" inkscape:output_extension="org.inkscape.output.svg.inkscape"><metadata id="metadata2848"><rdf:RDF><cc:Work rdf:about=""><dc:format>image/svg+xml</dc:format><dc:type rdf:resource="http://purl.org/dc/dcmitype/StillImage"/><dc:title/></cc:Work></rdf:RDF></metadata><sodipodi:namedview pagecolor="#ffffff" bordercolor="#666666" borderopacity="1" objecttolerance="10" gridtolerance="10" guidetolerance="10" inkscape:pageopacity="0" inkscape:pageshadow="2" inkscape:window-width="1280" inkscape:window-height="757" id="namedview2846" showgrid="false" inkscape:zoom="0.25485961" inkscape:cx="353.38318" inkscape:cy="29.890166" inkscape:window-x="-4" inkscape:window-y="20" inkscape:window-maximized="1" inkscape:current-layer="layer1" showguides="false"><inkscape:grid type="xygrid" id="grid2853" empspacing="5" visible="true" enabled="true" snapvisiblegridlinesonly="true"/></sodipodi:namedview>
	<defs id="defs2836"><inkscape:path-effect effect="spiro" id="path-effect2869" is_visible="true"/><inkscape:path-effect effect="spiro" id="path-effect2861" is_visible="true"/><inkscape:path-effect effect="spiro" id="path-effect2857" is_visible="true"/><inkscape:perspective sodipodi:type="inkscape:persp3d" inkscape:vp_x="0 : 231.5 : 1" inkscape:vp_y="0 : 1000 : 0" inkscape:vp_z="463 : 231.5 : 1" inkscape:persp3d-origin="231.5 : 154.33333 : 1" id="perspective2850"/>
	</defs>
	<g inkscape:groupmode="layer" id="layer1" inkscape:label="texto" style="display: inline;"><g id="g2863"/><path style="fill: rgb(255, 102, 0); stroke: rgb(0, 0, 0); stroke-width: 20; stroke-linecap: butt; stroke-linejoin: miter; stroke-miterlimit: 4; stroke-opacity: 1; stroke-dasharray: none;" d="m 368.74063,404.13264 951.80567,-1.38725 0,-179.66878 -867.91872,-1.38725 c 1.10239,34.00323 -5.65117,68.23722 -19.58448,99.27426 -14.48601,32.2682 -36.72033,61.02615 -64.30247,83.16902" id="path2867" inkscape:path-effect="#path-effect2869" inkscape:original-d="m 368.74063,404.13264 951.80567,-1.38725 0,-179.66878 -867.91872,-1.38725 c 0,0 -10.01369,73.92597 -19.58448,99.27426 -13.53516,35.84789 -64.30247,83.16902 -64.30247,83.16902 z" sodipodi:nodetypes="ccccsc"/><flowRoot xml:space="preserve" id="flowRoot3643" style="font-size:18px;font-style:normal;font-weight:normal;fill:#000000;fill-opacity:1;stroke:none;font-family:Bitstream Vera Sans" transform="translate(-0.327,-0.089)"><flowRegion id="flowRegion3645"><rect id="rect3647" width="873.966" height="105.43082" x="507.73264" y="257.68735" style="font-size: 18px;"/></flowRegion><flowPara id="flowPara3649"/></flowRoot><text xml:space="preserve" style="font-size: 36px; font-style: normal; font-variant: normal; font-weight: normal; font-stretch: normal; line-height: 200%; fill: rgb(255, 255, 255); fill-opacity: 1; stroke: none; font-family: Miriam;" x="539.325" y="374.588" id="text3651" sodipodi:linespacing="200%"><tspan sodipodi:role="line" id="tspan3653" x="539.325" y="374.588" style="font-size: 170px; font-style: normal; font-variant: normal; font-weight: bold; font-stretch: normal; text-align: start; line-height: 200%; text-anchor: start; font-family: DejaVu Sans;">PIRATA</tspan></text>


<text sodipodi:linespacing="200%" id="text3657" y="177.598" x="468.575" style="fill:#000080;fill-opacity:1" xml:space="preserve"><tspan style="font-size: 170px; font-style: normal; font-variant: normal; font-weight: bold; font-stretch: normal; text-align: start; line-height: 200%; text-anchor: start; fill: rgb(0, 0, 0); font-family: DejaVu Sans;" y="177.598" x="468.575" id="tspan3659" sodipodi:role="line">PARTIDO</tspan></text>


<path sodipodi:type="arc" style="fill: rgb(255, 255, 255); fill-opacity: 1; stroke: rgb(0, 0, 0); stroke-width: 20; stroke-miterlimit: 4; stroke-opacity: 1; stroke-dasharray: none;" id="path3682" sodipodi:cx="230.97673" sodipodi:cy="229.9424" sodipodi:rx="230.97673" sodipodi:ry="231.67035" d="m 461.95346,229.9424 a 230.97673,231.67035 0 1 1 -461.95346,0 230.97673,231.67035 0 1 1 461.95346,0 z" transform="matrix(0.946443, 0, 0, 0.955199, 9.18111, 12.4708)"/><path style="fill:#000080;fill-opacity:1" d="m 485.04013,115.61143 0,-61.889634 33.64075,0.622574 c 30.95321,0.572837 34.29672,0.877419 41.85161,3.812529 16.89886,6.565279 25.12947,18.694379 25.02901,36.884166 -0.0991,17.950475 -9.52287,30.917135 -26.29263,36.177545 -4.07687,1.27885 -14.54165,2.48095 -25.32826,2.90948 l -18.38103,0.73024 0,21.32137 0,21.32137 -15.25973,0 -15.25972,0 0,-61.88964 z m 61.98165,-6.90479 c 2.15194,-1.59509 4.82975,-5.49672 5.95071,-8.6703 1.79263,-5.075178 1.79263,-6.465075 0,-11.540258 -3.27518,-9.272481 -7.40873,-11.381655 -23.57854,-12.03112 l -13.83437,-0.555662 0,18.325561 0,18.325559 13.7748,-0.4768 c 11.32014,-0.39185 14.47202,-0.99362 17.6874,-3.37698 z" id="path2834" transform="translate(-0.327,-0.089)"/><path style="fill:#000080;fill-opacity:1" d="m 582.37941,169.56981 c 1.65081,-4.41215 11.90149,-32.05615 22.77928,-61.43112 l 19.77781,-53.409034 18.51542,-0.383874 18.51542,-0.383875 22.5162,60.799783 c 12.38392,33.43988 22.51621,61.2362 22.51621,61.76958 0,0.53339 -6.75883,0.9698 -15.01962,0.9698 l -15.01962,0 -3.87377,-11.12798 -3.87376,-11.12798 -25.67275,0.37681 -25.67275,0.37681 -3.81187,10.40436 -3.81187,10.40436 -15.43291,0.39222 -15.4329,0.39222 3.00148,-8.02208 z m 78.84117,-37.07541 c 0,-1.23902 -16.58748,-48.341838 -17.26098,-49.015342 -0.38259,-0.382589 -1.38974,1.107681 -2.23811,3.311711 -3.1164,8.096289 -15.1821,43.951741 -15.1821,45.116411 0,0.66108 7.80326,1.20197 17.34059,1.20197 9.53733,0 17.3406,-0.27664 17.3406,-0.61475 z" id="path2836" transform="translate(-0.327,-0.089)"/><path style="fill:#000080;fill-opacity:1" d="m 725.03397,115.60729 0,-61.893784 32.2535,0.737727 c 35.82467,0.81941 42.86287,1.97093 51.38293,8.406764 8.17381,6.174285 11.29533,13.154078 11.25461,25.165602 -0.05,14.756441 -6.65277,25.022661 -19.14904,29.773731 l -4.01242,1.52552 6.09945,3.86965 c 7.48925,4.75138 10.83394,9.72291 23.34987,34.70711 l 9.81943,19.60146 -16.30942,-0.0143 -16.30942,-0.0143 -10.40436,-20.35353 c -12.42799,-24.31226 -14.30233,-26.09061 -27.49895,-26.09061 l -9.26311,0 -0.38036,23.23639 -0.38035,23.2364 -15.22618,0 -15.22618,0 0,-61.89378 z m 56.87715,-8.51119 c 6.39176,-3.19305 9.23927,-11.213317 6.97139,-19.63559 -2.26785,-8.422122 -6.3234,-10.476732 -20.74274,-10.508604 l -11.89273,-0.02629 -0.39814,14.472317 c -0.21897,7.959774 -0.0825,15.294845 0.30328,16.300155 1.09552,2.8549 19.70984,2.41987 25.75894,-0.60199 z" id="path2838" transform="translate(-0.327,-0.089)"/><path style="fill:#000080;fill-opacity:1" d="m 874.85671,127.56016 0,-49.940918 -20.11509,0 -20.11509,0 0,-11.791605 0,-11.791605 56.18353,0 56.18353,0 0,11.791605 0,11.791605 -20.80872,0 -20.80871,0 0,49.940918 0,49.94091 -15.25973,0 -15.25972,0 0,-49.94091 z" id="path2841" transform="translate(-0.327,-0.089)"/><path style="fill:#000080;fill-opacity:1" d="m 965.0278,115.76855 0,-61.732518 15.25973,0 15.25972,0 0,61.732518 0,61.73252 -15.25972,0 -15.25973,0 0,-61.73252 z" id="path2843" transform="translate(-0.327,-0.089)"/><path style="fill:#000080;fill-opacity:1" d="m 1027.4539,115.54933 0,-61.951739 30.1727,0.901472 c 42.5983,1.272717 55.5385,4.714752 69.2418,18.418068 19.3694,19.369343 21.7726,58.140729 4.9707,80.191159 -14.2319,18.67746 -33.686,24.39278 -83.0298,24.39278 l -21.3554,0 0,-61.95174 z m 60.1874,36.4046 c 15.6184,-4.70046 23.6874,-17.05706 23.6293,-36.18538 -0.077,-25.472918 -13.9527,-38.149308 -41.7574,-38.149308 l -10.1526,0 0,38.149308 0,38.14931 10.8775,0 c 5.9827,0 13.8141,-0.88377 17.4032,-1.96393 z" id="path2845" transform="translate(-0.327,-0.089)"/><path style="fill:#000080;fill-opacity:1" d="m 1215.426,178.69262 c -30.8301,-2.8272 -50.7212,-23.85323 -52.9909,-56.01434 -3.0187,-42.776389 21.3826,-70.029495 62.7016,-70.029495 32.4002,0 55.0227,16.811821 61.0785,45.390194 6.218,29.344161 -2.4616,56.844611 -22.2355,70.451281 -12.6593,8.71099 -28.506,12.04078 -48.5537,10.20236 l 0,0 z m 24.1064,-24.4801 c 10.5097,-5.37171 16.8174,-19.96323 16.8174,-38.90355 0,-25.901711 -11.2331,-40.464223 -31.2131,-40.464223 -21.6146,0 -32.5602,16.347439 -30.8666,46.099673 1.4121,24.80684 13.709,38.19392 33.4707,36.43804 3.7212,-0.33064 9.0274,-1.75711 11.7916,-3.16994 l 0,0 z" id="path2847" transform="translate(-0.327,-0.089)"/><path style="fill:#ff0000;fill-opacity:1" d="m 404.39668,384.77893 c 31.32451,-34.1166 54.54485,-87.86211 57.78729,-133.75374 0.45822,-6.48538 1.11824,-13.19619 1.46671,-14.91291 l 0.63359,-3.1213 397.89125,0 c 218.84018,0 409.22808,0.41064 423.08408,0.91254 l 25.1929,0.91254 0,78.85419 0,78.8542 -264.6175,5.6e-4 c -145.53964,3e-4 -351.38439,0.41645 -457.43283,0.92478 l -192.81531,0.92421 8.80982,-9.59507 z m 183.29977,-30.20444 0,-21.303 17.68741,-0.788 c 28.43099,-1.26666 40.33819,-6.7622 48.04258,-22.17313 3.41041,-6.82178 3.99746,-9.63365 3.99746,-19.147 0,-14.67952 -4.71523,-24.7154 -14.79043,-31.47995 -12.02244,-8.07194 -18.47215,-9.15918 -54.93702,-9.2609 l -32.60032,-0.0909 -0.36095,62.77296 -0.36094,62.77295 16.6611,0 16.66111,0 0,-21.30299 z m 124.51961,-41.46996 -0.36095,-62.77296 -15.95334,0 -15.95335,0 -0.36095,62.77296 -0.36095,62.77295 16.67525,0 16.67524,0 -0.36095,-62.77295 z m 63.8328,38.84293 0.38036,-23.2364 7.39117,0 c 12.20778,0 15.16597,2.94019 26.89315,26.72951 l 10.07458,20.43691 17.32356,0 c 9.52795,0 17.32356,-0.27556 17.32356,-0.61234 0,-0.3368 -4.68569,-10.18727 -10.41265,-21.88995 -10.733,-21.93221 -16.283,-30.1594 -23.1712,-34.34836 l -3.97922,-2.41991 4.18058,-1.73166 c 2.29932,-0.95241 6.60462,-4.36142 9.56734,-7.57558 9.76743,-10.59641 11.10752,-28.71088 3.0625,-41.39657 -8.01363,-12.63619 -22.99476,-16.15622 -69.07163,-16.22937 l -22.54277,-0.0358 0,63.16379 0,63.16379 16.30015,-0.39083 16.30016,-0.39084 0.38036,-23.2364 z m 119.61898,12.13842 3.70027,-11.09799 24.71358,0 24.71357,0 1.86997,5.549 c 1.02848,3.05194 2.85964,8.2021 4.06927,11.44479 l 2.1993,5.8958 16.68065,0 c 15.32673,0 16.60283,-0.19704 15.72191,-2.42768 -0.52729,-1.33523 -10.27466,-27.5851 -21.66081,-58.33305 -11.38616,-30.74795 -21.60953,-58.07716 -22.71862,-60.73158 l -2.01652,-4.82623 -19.11478,0.38632 -19.11477,0.38631 -22.46151,60.34527 c -12.35381,33.1899 -22.50444,61.45754 -22.55694,62.81699 -0.0871,2.25636 1.31471,2.43764 16.08986,2.08087 l 16.18528,-0.39084 3.70029,-11.09798 0,0 z m 155.36936,-38.14931 0,-49.94092 20.8607,0 20.8608,0 -0.3989,-12.83204 -0.3988,-12.83204 -57.224,-0.3622 -57.22397,-0.3622 0,13.19424 0,13.19424 20.11509,0 20.11508,0 0,49.94092 0,49.94091 16.647,0 16.647,0 0,-49.94091 z m 65.6522,37.80249 4.0895,-11.44479 24.4948,0 24.4949,0 3.8401,11.79161 3.8401,11.7916 16.7093,0 c 12.7728,0 16.5635,-0.40853 16.0903,-1.73406 -10.2867,-28.81396 -44.9488,-121.53488 -45.9101,-122.80925 -0.9952,-1.31936 -6.12,-1.67366 -20.0658,-1.38725 l -18.7293,0.38465 -22.6555,61.0389 c -12.4605,33.57139 -22.6697,61.83903 -22.6869,62.81698 -0.024,1.36819 3.7066,1.68798 16.1838,1.38725 l 16.2153,-0.39084 4.0895,-11.4448 0,0 z" id="path2849" transform="translate(-0.327,-0.089)"/><path style="fill:#ff0000;fill-opacity:1" d="m 587.69645,291.25538 0,-16.64698 11.14254,0 c 6.49171,0 13.11208,0.82293 15.86121,1.97159 11.94355,4.99034 11.94355,24.36044 0,29.35077 -2.74913,1.14866 -9.3695,1.97159 -15.86121,1.97159 l -11.14254,0 0,-16.64697 z" id="path2851" transform="translate(-0.327,-0.089)"/><path style="fill:#ff0000;fill-opacity:1" d="m 776.36213,289.86813 0,-15.25973 8.8101,0 c 4.84555,0 10.795,0.69195 13.221,1.53765 10.55967,3.68112 11.46481,21.77487 1.35092,27.00497 -2.24801,1.16249 -7.85141,1.97683 -13.6024,1.97683 l -9.77962,0 0,-15.25972 z" id="path2853" transform="translate(-0.327,-0.089)"/><path style="fill:#ff0000;fill-opacity:1" d="m 908.16636,328.36425 c 0.009,-0.19075 3.61426,-10.75572 8.0125,-23.47773 l 7.99679,-23.13091 7.48114,21.74367 c 4.11463,11.95901 7.7548,22.52399 8.08927,23.47772 0.46382,1.32258 -3.21272,1.73406 -15.49364,1.73406 -8.85597,0 -16.0947,-0.15606 -16.08606,-0.34681 z" id="path2855" transform="translate(-0.327,-0.089)"/><path style="fill:#ff0000;fill-opacity:1" d="m 1136.6982,305.84184 c 4.3341,-12.57807 8.2799,-22.41019 8.7685,-21.84915 0.8128,0.93325 15.163,42.66674 15.163,44.09712 0,0.34169 -7.1576,0.62125 -15.9058,0.62125 l -15.9059,0 7.8802,-22.86922 z" id="path2857" transform="translate(-0.327,-0.089)"/></g><g id="g2838">
		<path d="m 120.805,110.043 c 24.267,-7.07 126.586,6.86 105.678,105.837 -7.609,36.019 -49.357,53.566 -69.592,68.72 -47.901,35.873 -6.648,121.071 -6.648,121.071 0,0 -22.318,-66.267 27.382,-97.619 C 223.352,279.206 380.998,292.759 380.456,203.786 379.417,33.321 113.795,94.816 120.805,110.043 z" id="path2840"/>
		<rect x="141.205" y="61.290001" width="20.208" height="250.63" id="rect2842"/> 
		
	</g><g inkscape:groupmode="layer" id="layer2" inkscape:label="estrella" style="display: inline;"><path sodipodi:type="star" style="fill:#ffffff;fill-opacity:1;stroke:none" id="path3680" sodipodi:sides="5" sodipodi:cx="266.35153" sodipodi:cy="148.09479" sodipodi:r1="76.764175" sodipodi:r2="38.382088" sodipodi:arg1="0.79697492" sodipodi:arg2="1.4252935" inkscape:flatsided="false" inkscape:rounded="0" inkscape:randomized="0" d="M 319.99999,203 L 271.91655,186.0713 L 230.71186,216.08414 L 231.95341,165.12282 L 190.67655,135.20931 L 239.52731,120.64218 L 255.22149,72.14177 L 284.17137,114.10011 L 335.14777,114.03872 L 304.18902,154.53753 L 319.99999,203 z" transform="matrix(0.540316,0,0,0.543946,149.766,107.17475)"/></g>
</svg>