<?xml version="1.0" encoding="utf-8"?>
<!-- Generator: Adobe Illustrator 15.1.0, SVG Export Plug-In . SVG Version: 6.00 Build 0)  -->
<!DOCTYPE svg PUBLIC "-//W3C//DTD SVG 1.1//EN" "http://www.w3.org/Graphics/SVG/1.1/DTD/svg11.dtd">
<svg version="1.1" id="Layer_1" xmlns="http://www.w3.org/2000/svg" xmlns:xlink="http://www.w3.org/1999/xlink" x="0px" y="0px"
	 width="566.93px" height="566.93px" viewBox="0 0 566.93 566.93" enable-background="new 0 0 566.93 566.93" xml:space="preserve">
<linearGradient id="SVGID_1_" gradientUnits="userSpaceOnUse" x1="193.8525" y1="246.6963" x2="373.3022" y2="321.0738">
	<stop  offset="0" style="stop-color:#955C37"/>
	<stop  offset="1" style="stop-color:#351900"/>
</linearGradient>
<path fill="url(#SVGID_1_)" d="M361.924,341.229c15.318-20.933,21.565-46.573,17.595-72.201
	c-3.565-23.04-15.299-44.033-33.049-59.114c-17.559-14.92-39.854-23.138-62.78-23.138c-4.979,0-10.017,0.39-14.97,1.158
	c-25.625,3.968-48.175,17.679-63.487,38.606c-15.318,20.928-21.565,46.569-17.599,72.197c3.568,23.042,15.303,44.038,33.049,59.118
	c17.563,14.919,39.857,23.141,62.78,23.141c4.976,0,10.009-0.391,14.966-1.158C324.058,375.869,346.611,362.154,361.924,341.229z"/>
<g id="XMLID_3_">
	<g>
		<path fill="#FFFFFF" d="M345.327,253.767c16.574,47.04-60.962,51.037-79.892,67.457c-19.409,16.85-5.737,43.903-5.385,44.587
			c-0.44-0.654-17.278-25.401-10.896-44.304l-13.164-85.079c-3.821,0.342-6.958,1.085-8.844,1.974
			c-0.752-1.134,2.414-3.587,8.16-6.353l-2.531-16.371l8.844-1.368l2.189,14.152c29.279-10.957,87.915-20.662,101.509,25.294
			L345.327,253.767z M328.654,285.98c9.842-6.744,13.564-13.869,12.079-23.105c-0.293-1.828-0.664-3.606-1.104-5.317l-10.682-8.092
			l-5.952,8.258l-13.114-9.734l-5.199,14.162l-10.887-5.346l-6.753,13.546c0.156,2.424,0.156,4.975,0.01,7.565
			c-0.841,15.501-12.979,26.027-21.842,33.719c-1.544,1.349,14.258-5.238,27.579-9.881
			C305.083,297.444,319.009,292.587,328.654,285.98z M256.532,310.658c8.366-7.789,30.442-20.505,22.448-48.496
			c-5.043-17.661-18.988-24.512-33.941-25.744L256.532,310.658z"/>
	</g>
	<g>
	</g>
</g>
</svg>
