<?xml version="1.0" encoding="UTF-8"?>
<!-- Generator: Adobe Illustrator 14.0.0, SVG Export Plug-In . SVG Version: 6.00 Build 43363)  -->
<!DOCTYPE svg PUBLIC "-//W3C//DTD SVG 1.1//EN" "http://www.w3.org/Graphics/SVG/1.1/DTD/svg11.dtd" [
	<!ENTITY ns_flows "http://ns.adobe.com/Flows/1.0/">
	<!ENTITY ns_extend "http://ns.adobe.com/Extensibility/1.0/">
	<!ENTITY ns_ai "http://ns.adobe.com/AdobeIllustrator/10.0/">
	<!ENTITY ns_graphs "http://ns.adobe.com/Graphs/1.0/">
]>
<svg version="1.1" xmlns:x="http://ns.adobe.com/Extensibility/1.0/" xmlns:i="http://ns.adobe.com/AdobeIllustrator/10.0/" xmlns:graph="http://ns.adobe.com/Graphs/1.0/" xmlns="http://www.w3.org/2000/svg" xmlns:xlink="http://www.w3.org/1999/xlink" xmlns:a="http://ns.adobe.com/AdobeSVGViewerExtensions/3.0/" x="0px" y="0px" width="240.94px" height="155.91px" viewBox="0 0 240.94 155.91" enable-background="new 0 0 240.94 155.91" xml:space="preserve">
<g id="Ebene_2">
</g>
<g id="Ebene_1">
	<g>
		<path fill="#010101" d="M223.353,64.486c0.246,0.01,0.453,0.015,0.624,0.015c0.15,0,0.337-0.005,0.564-0.015    c0.226-0.009,0.415-0.021,0.565-0.041c0.02-0.164,0.032-0.365,0.043-0.605c0.01-0.238,0.016-0.439,0.016-0.605    c0-0.146-0.006-0.33-0.016-0.552c-0.011-0.22-0.023-0.402-0.043-0.55c-0.15-0.019-0.34-0.032-0.565-0.041    c-0.228-0.008-0.414-0.013-0.564-0.013c-0.171,0-0.378,0.005-0.624,0.013c-0.246,0.009-0.453,0.022-0.623,0.041    c-0.018,0.147-0.033,0.33-0.041,0.55c-0.01,0.222-0.016,0.406-0.016,0.552c0,0.166,0.006,0.367,0.016,0.605    c0.008,0.24,0.023,0.441,0.041,0.605C222.899,64.465,223.106,64.478,223.353,64.486 M223.664,81.924    c0.113,0.019,0.273,0.033,0.48,0.043c0.207,0.009,0.36,0.013,0.455,0.013c0.112,0,0.267-0.004,0.465-0.013    c0.197-0.01,0.354-0.024,0.468-0.043V67.886h-3.678c-0.02,0.092-0.035,0.211-0.043,0.359c-0.012,0.146-0.014,0.293-0.014,0.439    s0.002,0.286,0.014,0.412c0.008,0.129,0.023,0.24,0.043,0.33h1.81V81.924z M208.389,73.667c0.149-1.432,0.594-2.542,1.329-3.331    c0.736-0.788,1.762-1.185,3.084-1.185c0.717,0,1.328,0.131,1.838,0.388c0.509,0.257,0.925,0.589,1.246,1.004    c0.319,0.412,0.556,0.895,0.706,1.446c0.151,0.55,0.228,1.107,0.228,1.678H208.389z M218.629,75.181    c0.018-0.184,0.033-0.403,0.043-0.66c0.01-0.258,0.014-0.469,0.014-0.634c0-0.917-0.128-1.767-0.382-2.547    c-0.253-0.778-0.633-1.449-1.132-2.008c-0.5-0.56-1.118-0.995-1.854-1.309c-0.735-0.311-1.576-0.468-2.517-0.468    c-1.132,0-2.104,0.192-2.913,0.578c-0.814,0.386-1.477,0.919-1.996,1.597c-0.519,0.681-0.904,1.469-1.157,2.368    c-0.256,0.899-0.384,1.862-0.384,2.89c0,1.065,0.136,2.042,0.409,2.932c0.274,0.889,0.698,1.656,1.275,2.299    c0.575,0.643,1.311,1.143,2.205,1.5c0.896,0.358,1.967,0.537,3.21,0.537c0.867,0,1.67-0.065,2.406-0.192    c0.734-0.13,1.376-0.312,1.924-0.552c-0.02-0.238-0.059-0.505-0.114-0.799c-0.056-0.293-0.132-0.54-0.227-0.742    c-0.583,0.202-1.183,0.361-1.795,0.479c-0.613,0.121-1.279,0.181-1.995,0.181c-1.773,0-3.104-0.44-3.99-1.321    c-0.887-0.88-1.329-2.258-1.329-4.129H218.629z M198.203,78.649c0,1.266,0.337,2.179,1.007,2.738    c0.668,0.561,1.541,0.841,2.615,0.841c0.906,0,1.698-0.103,2.377-0.305c-0.058-0.55-0.152-1.062-0.282-1.541    c-0.491,0.166-1.066,0.248-1.727,0.248c-0.265,0-0.522-0.022-0.778-0.068s-0.48-0.143-0.678-0.289    c-0.199-0.147-0.36-0.354-0.481-0.619c-0.124-0.267-0.186-0.63-0.186-1.087v-9.141h3.904c0.02-0.09,0.032-0.209,0.042-0.357    c0.01-0.146,0.016-0.293,0.016-0.439c0-0.147-0.006-0.284-0.016-0.414c-0.01-0.127-0.022-0.238-0.042-0.33h-3.904v-4.321h-0.111    l-1.756,1.679v2.643h-2.46c-0.018,0.092-0.033,0.203-0.043,0.33c-0.01,0.13-0.014,0.267-0.014,0.414    c0,0.146,0.004,0.293,0.014,0.439c0.01,0.148,0.025,0.268,0.043,0.357h2.46V78.649z M187.652,81.924    c0.111,0.019,0.273,0.033,0.48,0.043c0.207,0.009,0.36,0.013,0.453,0.013c0.114,0,0.269-0.004,0.467-0.013    c0.197-0.01,0.354-0.024,0.468-0.043v-7.21c0-1.835,0.386-3.149,1.16-3.937c0.772-0.79,1.798-1.185,3.084-1.185h0.267    c0.088,0,0.203,0.01,0.354,0.028c0.057-0.276,0.083-0.561,0.083-0.854c0-0.275-0.026-0.568-0.083-0.882    c-0.132-0.019-0.25-0.027-0.354-0.027h-0.296c-1.113,0-2.01,0.234-2.688,0.702c-0.679,0.468-1.208,1.042-1.585,1.72    c0-0.366-0.008-0.774-0.027-1.224c-0.021-0.451-0.048-0.841-0.085-1.171c-0.151-0.019-0.292-0.031-0.424-0.041    c-0.132-0.009-0.275-0.013-0.426-0.013c-0.132,0-0.268,0.004-0.411,0.013c-0.141,0.01-0.286,0.022-0.438,0.041V81.924z     M181.09,73.502c-0.321-0.036-0.726-0.079-1.218-0.124c-0.489-0.047-1.074-0.068-1.752-0.068c-0.869,0-1.665,0.102-2.391,0.303    c-0.727,0.201-1.35,0.5-1.868,0.895c-0.519,0.394-0.925,0.882-1.214,1.458c-0.294,0.577-0.441,1.235-0.441,1.968    c0,1.524,0.505,2.624,1.514,3.304c1.009,0.679,2.392,1.02,4.146,1.02c0.85,0,1.746-0.065,2.687-0.192    c0.944-0.13,1.744-0.259,2.404-0.387v-9.275c0-1.67-0.443-2.896-1.328-3.677c-0.887-0.779-2.245-1.169-4.075-1.169    c-0.755,0-1.488,0.051-2.205,0.152c-0.718,0.101-1.321,0.223-1.812,0.372c0,0.275,0.033,0.568,0.101,0.879    c0.065,0.312,0.144,0.55,0.24,0.718c0.489-0.147,1.045-0.272,1.669-0.373c0.621-0.101,1.311-0.152,2.065-0.152    c1.147,0,2.016,0.281,2.602,0.842c0.585,0.56,0.877,1.444,0.877,2.655V73.502z M181.09,80.355    c-0.489,0.092-0.989,0.165-1.498,0.22c-0.512,0.056-1.058,0.083-1.642,0.083c-0.453,0-0.906-0.031-1.357-0.096    c-0.453-0.063-0.869-0.194-1.245-0.387c-0.377-0.191-0.685-0.471-0.919-0.839c-0.236-0.366-0.354-0.853-0.354-1.459    c0-0.954,0.388-1.688,1.16-2.202c0.773-0.513,1.867-0.77,3.281-0.77c0.434,0,0.891,0.021,1.37,0.067    c0.482,0.045,0.883,0.089,1.204,0.124V80.355z M158.345,73.749c0-0.881,0.147-1.61,0.439-2.188    c0.293-0.579,0.658-1.046,1.103-1.403c0.444-0.36,0.929-0.61,1.457-0.757c0.528-0.147,1.019-0.222,1.472-0.222    c1.451,0,2.505,0.479,3.153,1.433c0.652,0.952,0.978,2.273,0.978,3.964c0,1.062-0.144,1.978-0.426,2.737    c-0.283,0.762-0.668,1.391-1.16,1.886c-0.489,0.496-1.064,0.857-1.725,1.087c-0.66,0.23-1.358,0.345-2.095,0.345    c-0.772,0-1.39-0.041-1.853-0.123c-0.464-0.082-0.91-0.207-1.344-0.372V73.749z M156.479,88.421    c0.114,0.019,0.268,0.033,0.467,0.041c0.199,0.01,0.353,0.015,0.467,0.015c0.093,0,0.245-0.005,0.452-0.015    c0.208-0.008,0.368-0.022,0.48-0.041v-6.606c0.434,0.146,0.916,0.257,1.442,0.331c0.528,0.073,1.021,0.11,1.474,0.11    c1.226,0,2.313-0.179,3.266-0.537c0.952-0.357,1.754-0.872,2.404-1.543c0.652-0.669,1.146-1.486,1.485-2.448    c0.341-0.964,0.511-2.052,0.511-3.264c0-1.211-0.147-2.247-0.439-3.109c-0.292-0.861-0.697-1.577-1.216-2.147    c-0.521-0.568-1.146-0.986-1.882-1.252s-1.547-0.399-2.434-0.399c-1.188,0-2.154,0.229-2.897,0.689    c-0.747,0.457-1.316,0.98-1.714,1.568l-0.17-1.928c-0.11-0.019-0.254-0.031-0.422-0.041c-0.171-0.009-0.312-0.013-0.427-0.013    c-0.111,0-0.253,0.004-0.424,0.013c-0.168,0.01-0.31,0.022-0.424,0.041V88.421z"/>
		<path fill="#4C2582" d="M139.363,81.924c0.679,0.11,1.348,0.168,2.01,0.168c0.66,0,1.328-0.058,2.008-0.168v-7.458    c0-0.771,0.085-1.394,0.254-1.872c0.17-0.479,0.393-0.849,0.665-1.115c0.273-0.267,0.581-0.445,0.92-0.538    c0.341-0.09,0.67-0.136,0.989-0.136c0.774,0,1.316,0.266,1.628,0.797c0.312,0.533,0.465,1.294,0.465,2.285v8.037    c0.682,0.11,1.35,0.168,2.01,0.168s1.329-0.058,2.009-0.168v-9.083c0-1.89-0.422-3.274-1.26-4.155    c-0.839-0.882-2.087-1.321-3.749-1.321c-0.525,0-1.008,0.068-1.441,0.204c-0.434,0.14-0.825,0.317-1.173,0.54    c-0.351,0.219-0.656,0.467-0.92,0.742c-0.267,0.274-0.491,0.549-0.68,0.827c-0.02-0.13-0.042-0.286-0.071-0.471    c-0.027-0.183-0.061-0.37-0.099-0.562c-0.037-0.195-0.079-0.379-0.126-0.553c-0.049-0.174-0.101-0.306-0.158-0.398    c-0.264-0.057-0.518-0.096-0.762-0.126c-0.245-0.027-0.528-0.039-0.85-0.039s-0.611,0.012-0.875,0.039    c-0.266,0.03-0.53,0.069-0.794,0.126V81.924z M126.689,73.28c0.095-0.935,0.386-1.66,0.877-2.173    c0.491-0.516,1.208-0.771,2.15-0.771c0.831,0,1.476,0.271,1.938,0.813c0.463,0.54,0.713,1.253,0.749,2.131H126.689z     M136.055,76.007c0.037-0.201,0.07-0.473,0.1-0.813c0.026-0.337,0.04-0.681,0.04-1.031c0-0.955-0.14-1.847-0.424-2.684    c-0.282-0.835-0.703-1.555-1.259-2.161c-0.557-0.605-1.229-1.081-2.022-1.432c-0.792-0.349-1.698-0.521-2.716-0.521    c-1.171,0-2.191,0.197-3.069,0.591c-0.876,0.395-1.612,0.932-2.206,1.611c-0.595,0.677-1.042,1.477-1.344,2.393    c-0.303,0.918-0.453,1.9-0.453,2.947c0,1.064,0.145,2.044,0.438,2.944c0.294,0.899,0.745,1.675,1.359,2.327    c0.613,0.65,1.405,1.16,2.375,1.526c0.972,0.367,2.138,0.552,3.494,0.552c1.849,0,3.508-0.276,4.979-0.826    c-0.02-0.587-0.104-1.138-0.256-1.652c-0.15-0.514-0.329-0.954-0.536-1.319c-0.604,0.22-1.239,0.39-1.911,0.509    c-0.667,0.119-1.323,0.178-1.965,0.178c-1.169,0-2.111-0.247-2.828-0.744c-0.718-0.494-1.113-1.294-1.189-2.394H136.055z     M113.026,77.106c0,1.764,0.452,3.034,1.358,3.813c0.905,0.78,2.215,1.172,3.933,1.172c0.923,0,1.82-0.104,2.687-0.306    c0.02-0.128,0.033-0.261,0.041-0.396c0.01-0.14,0.015-0.308,0.015-0.51c0-0.295-0.027-0.629-0.083-1.006    c-0.058-0.376-0.151-0.739-0.285-1.087c-0.207,0.036-0.447,0.077-0.72,0.122c-0.272,0.046-0.551,0.07-0.833,0.07    c-0.359,0-0.67-0.037-0.936-0.109c-0.262-0.073-0.483-0.211-0.664-0.412c-0.18-0.205-0.315-0.479-0.41-0.827    c-0.094-0.349-0.141-0.809-0.141-1.376v-5.589h3.423c0.057-0.294,0.095-0.56,0.114-0.798c0.018-0.238,0.026-0.485,0.026-0.743    c0-0.238-0.009-0.468-0.026-0.687c-0.02-0.221-0.058-0.471-0.114-0.744h-3.423v-4.156h-0.65l-5.291,6.578l0.141,0.55h1.839V77.106    z M105.162,72.896c-0.661-0.055-1.264-0.082-1.811-0.082c-0.754,0-1.51,0.078-2.263,0.234c-0.754,0.155-1.438,0.412-2.052,0.77    c-0.611,0.359-1.112,0.835-1.498,1.435c-0.387,0.594-0.581,1.333-0.581,2.214c0,0.882,0.156,1.624,0.467,2.228    c0.31,0.607,0.753,1.102,1.329,1.489c0.576,0.384,1.264,0.659,2.066,0.824c0.801,0.167,1.683,0.249,2.645,0.249    c1.187,0,2.253-0.093,3.196-0.276c0.943-0.184,1.745-0.376,2.406-0.577v-8.257c0-2.021-0.552-3.487-1.655-4.406    c-1.104-0.916-2.637-1.375-4.599-1.375c-0.717,0-1.488,0.063-2.319,0.191c-0.83,0.129-1.66,0.33-2.489,0.604    c0,0.589,0.065,1.092,0.198,1.518c0.131,0.42,0.329,0.869,0.594,1.347c1.149-0.385,2.235-0.578,3.252-0.578    c0.472,0,0.901,0.026,1.288,0.082c0.387,0.055,0.712,0.161,0.977,0.316c0.263,0.156,0.47,0.373,0.623,0.647    c0.15,0.277,0.226,0.634,0.226,1.073V72.896z M105.162,79.034c-0.208,0.037-0.452,0.079-0.736,0.125    c-0.283,0.046-0.566,0.068-0.849,0.068c-0.246,0-0.534-0.014-0.863-0.043c-0.33-0.025-0.642-0.099-0.934-0.218    c-0.292-0.119-0.542-0.308-0.749-0.566c-0.208-0.255-0.311-0.623-0.311-1.1c0-0.716,0.27-1.233,0.807-1.556    c0.536-0.321,1.267-0.481,2.191-0.481c0.207,0,0.443,0.013,0.708,0.041c0.264,0.028,0.51,0.06,0.736,0.096V79.034z M86.773,81.952    c0.359,0.055,0.703,0.091,1.033,0.109c0.329,0.019,0.655,0.03,0.976,0.03c0.321,0,0.651-0.012,0.99-0.03    c0.34-0.019,0.68-0.055,1.019-0.109v-6.771c0-0.992,0.117-1.762,0.354-2.312c0.235-0.548,0.533-0.964,0.891-1.238    c0.357-0.275,0.735-0.443,1.132-0.511c0.396-0.063,0.753-0.095,1.075-0.095h0.467c0.253,0,0.484,0.019,0.692,0.057    c0.077-0.333,0.127-0.68,0.157-1.048c0.027-0.366,0.042-0.705,0.042-1.019c0-0.257-0.01-0.504-0.028-0.742    c-0.02-0.238-0.048-0.449-0.086-0.635c-0.112-0.036-0.292-0.063-0.537-0.082c-0.245-0.019-0.462-0.026-0.65-0.026    c-0.905,0-1.66,0.225-2.263,0.674c-0.604,0.45-1.113,0.96-1.528,1.527c-0.019-0.128-0.043-0.289-0.07-0.481    c-0.028-0.191-0.061-0.387-0.098-0.579c-0.039-0.191-0.082-0.376-0.128-0.55c-0.048-0.175-0.099-0.308-0.156-0.399    c-0.265-0.055-0.533-0.101-0.806-0.137c-0.273-0.037-0.552-0.055-0.835-0.055c-0.303,0-0.579,0.012-0.834,0.039    c-0.255,0.03-0.523,0.069-0.807,0.126V81.952z M79.333,65.407c0.377,0.019,0.717,0.03,1.018,0.03c0.321,0,0.666-0.012,1.034-0.03    c0.368-0.017,0.711-0.054,1.032-0.108c0.056-0.312,0.095-0.624,0.113-0.937c0.019-0.312,0.028-0.614,0.028-0.908    c0-0.311-0.009-0.619-0.028-0.922c-0.018-0.302-0.058-0.609-0.113-0.921c-0.321-0.057-0.67-0.097-1.045-0.125    c-0.379-0.027-0.727-0.041-1.048-0.041c-0.302,0-0.636,0.014-1.004,0.041c-0.368,0.028-0.711,0.068-1.033,0.125    c-0.113,0.641-0.169,1.258-0.169,1.843c0,0.606,0.057,1.221,0.169,1.845C78.608,65.354,78.956,65.391,79.333,65.407 M78.88,81.924    c0.68,0.11,1.33,0.168,1.953,0.168c0.641,0,1.301-0.058,1.979-0.168V67.694h-5.827c-0.113,0.477-0.169,0.963-0.169,1.457    c0,0.24,0.014,0.492,0.042,0.757c0.029,0.268,0.073,0.52,0.128,0.758h1.895V81.924z M65.304,74.052    c0-0.458,0.046-0.891,0.139-1.293c0.095-0.404,0.246-0.758,0.453-1.059c0.208-0.304,0.477-0.542,0.807-0.718    c0.33-0.174,0.731-0.26,1.203-0.26c0.508,0,0.938,0.099,1.287,0.302c0.349,0.201,0.637,0.477,0.863,0.827    c0.226,0.348,0.386,0.766,0.48,1.251c0.095,0.485,0.142,1.016,0.142,1.583c0,1.486-0.312,2.597-0.934,3.33    c-0.623,0.734-1.519,1.102-2.688,1.102c-0.661,0-1.246-0.074-1.753-0.22V74.052z M61.285,88.448    c0.358,0.057,0.703,0.094,1.033,0.11c0.33,0.019,0.655,0.028,0.976,0.028s0.646-0.01,0.976-0.028    c0.33-0.017,0.675-0.054,1.034-0.11v-6.332c0.207,0.037,0.465,0.07,0.777,0.097c0.311,0.028,0.627,0.043,0.947,0.043    c1.245,0,2.357-0.179,3.338-0.537c0.98-0.359,1.811-0.868,2.489-1.528c0.68-0.661,1.197-1.462,1.558-2.409    c0.356-0.944,0.537-2.013,0.537-3.207c0-1.228-0.146-2.292-0.439-3.192c-0.292-0.898-0.703-1.646-1.231-2.242    c-0.528-0.598-1.145-1.041-1.854-1.336c-0.706-0.294-1.466-0.439-2.275-0.439c-0.529,0-1.009,0.068-1.443,0.204    c-0.433,0.14-0.826,0.317-1.175,0.54c-0.349,0.219-0.646,0.471-0.891,0.754c-0.245,0.285-0.452,0.576-0.622,0.868    c-0.019-0.128-0.042-0.289-0.071-0.481c-0.028-0.191-0.066-0.391-0.114-0.592c-0.046-0.201-0.095-0.391-0.142-0.564    s-0.098-0.306-0.156-0.398c-0.547-0.11-1.084-0.165-1.612-0.165c-0.321,0-0.608,0.008-0.863,0.026    c-0.255,0.019-0.515,0.056-0.778,0.11V88.448z"/>
	</g>
	<path fill="#FFFFFF" d="M51.828,75.67c0,10.389-8.423,18.812-18.816,18.812c-10.386,0-18.811-8.424-18.811-18.812   s8.425-18.812,18.811-18.812C43.405,56.857,51.828,65.281,51.828,75.67"/>
	<path d="M33.013,93.811c-10.016,0-18.14-8.123-18.14-18.143c0-10.018,8.124-18.139,18.14-18.139   c10.021,0,18.144,8.121,18.144,18.139C51.156,85.688,43.034,93.811,33.013,93.811 M33.013,55.451   c-11.166,0-20.219,9.049-20.219,20.217c0,11.164,9.053,20.219,20.219,20.219c11.169,0,20.222-9.055,20.222-20.219   C53.235,64.5,44.182,55.451,33.013,55.451"/>
	<path d="M30.117,77.982c-1.058,0.742-1.937,1.434-2.663,2.096V66.02c1.47,0.311,3.026,0.947,4.101,2.211   C34.194,71.348,33.298,75.75,30.117,77.982 M41.658,65.607c-4.375-2.455-9.856-2.475-14.204-1.359v-1.883h-1.888v2.459   c-0.81,0.293-1.561,0.625-2.227,0.984c0,0,0.938-0.113,2.227-0.037v16.455c-0.938,1.445-1.165,2.85-0.942,4.473   c0.248,1.812,1.616,3.023,2.695,3.918c-0.635-1.828-0.683-3.492-0.496-4.498c0.355-1.881,1.458-3.232,6.217-4.262   c4.939-1.066,10.789-1.559,12.724-6.354C46.647,73.314,47.194,68.713,41.658,65.607"/>
	<path d="M17.975,60.631c-3.852,3.848-6.23,9.162-6.23,15.039c0,5.869,2.378,11.186,6.23,15.036   c3.849,3.849,9.165,6.231,15.039,6.231c5.871,0,11.191-2.383,15.039-6.231c3.85-3.851,6.229-9.167,6.229-15.036   c0-5.877-2.38-11.191-6.229-15.039c-3.848-3.85-9.167-6.229-15.039-6.229C27.14,54.402,21.824,56.781,17.975,60.631 M11.194,75.67   c0-12.053,9.77-21.816,21.82-21.816c12.048,0,21.819,9.764,21.819,21.816c0,12.045-9.771,21.814-21.819,21.814   C20.964,97.484,11.194,87.715,11.194,75.67"/>
</g>
</svg>